<svg width="24" height="24" viewBox="0 0 24 24" fill="none" xmlns="http://www.w3.org/2000/svg">
<path fill-rule="evenodd" clip-rule="evenodd" d="M22 12.14C22.0046 13.711 20.7964 15.0195 19.23 15.14L8.05 16C8.16 17 8.47 17 9 17H20C20.3011 16.9885 20.5913 17.1134 20.79 17.34C21.8459 17.9431 22.3146 19.2186 21.9006 20.362C21.4865 21.5054 20.3098 22.185 19.1125 21.9722C17.9153 21.7594 17.0448 20.716 17.05 19.5C17.0513 19.3321 17.068 19.1647 17.1 19H13C13.0153 19.1663 13.0153 19.3336 13 19.5C13 20.8807 11.8807 22 10.5 22C9.11929 22 8 20.8807 8 19.5C8.00069 19.2973 8.02758 19.0957 8.08 18.9C6 18.41 6 16.25 6 15.08L4.15 3.99996H3C2.44772 3.99996 2 3.55225 2 2.99996C2 2.44768 2.44772 1.99996 3 1.99996H5C5.49539 1.99359 5.92077 2.3509 6 2.83996L6.18 3.99996L21.07 4.99996C21.5948 5.03678 22.0013 5.4739 22 5.99996V12.14ZM20 19.5C20 19.2238 19.7761 19 19.5 19C19.2239 19 19 19.2238 19 19.5C19 19.7761 19.2239 20 19.5 20C19.7761 20 20 19.7761 20 19.5ZM10.5 19C10.7761 19 11 19.2238 11 19.5C11 19.7761 10.7761 20 10.5 20C10.2239 20 10 19.7761 10 19.5C10 19.2238 10.2239 19 10.5 19ZM7.85 14H7.92L19.08 13.15C19.6008 13.1082 20.0017 12.6725 20 12.15V6.93996L6.52 5.99996L7.85 14Z" fill="#231F20"/>
</svg>
